<svg width="677" height="139" viewBox="0 0 677 139" fill="none" xmlns="http://www.w3.org/2000/svg">
<g clip-path="url(#clip0_13_687)">
<path d="M186.82 66.6622L181.453 25.9275H155.719V113.034H174.001V65.4846L182.244 113.034H189.947L198.191 65.4846V113.034H216.743V25.9275H192.438L186.82 66.6622Z" fill="white"/>
<path d="M233.694 25.9275L221.281 113.034H239.968L241.397 100.273H251.339L252.903 113.034H273.811L260.22 25.9275H233.694ZM243.366 83.0719L246.378 56.604L249.389 83.0719H243.385H243.366Z" fill="white"/>
<mask id="mask0_13_687" style="mask-type:luminance" maskUnits="userSpaceOnUse" x="0" y="0" width="677" height="139">
<path d="M676.853 0H0V139H676.853V0Z" fill="white"/>
</mask>
<g mask="url(#mask0_13_687)">
<path d="M309.217 25.9274H278.367V113.034H309.333C322.017 113.034 328.677 106.721 328.677 93.0142V45.1171C328.677 31.1785 321.225 25.9081 309.198 25.9081M306.707 91.0064C306.707 94.6359 305.8 96.2768 302.653 96.2768H299.641V42.0668H302.904C305.916 42.0668 306.688 43.4761 306.688 47.1056V91.0064H306.707Z" fill="white"/>
<path d="M364.045 25.9274H333.195V113.034H364.161C376.844 113.034 383.505 106.721 383.505 93.0142V45.1171C383.505 31.1785 376.053 25.9081 364.026 25.9081M361.535 91.0064C361.535 94.6359 360.628 96.2768 357.481 96.2768H354.469V42.0668H357.732C360.744 42.0668 361.516 43.4761 361.516 47.1056V91.0064H361.535Z" fill="white"/>
<path d="M388.1 113.034H429.278V94.636H409.413V77.3189H424.703V58.8242H409.413V43.9396H429.278V25.9275H388.1V113.034Z" fill="white"/>
<path d="M465.882 68.0715L454.781 25.9275H433.873V113.034H452.561V67.6082L465.36 113.034H484.318V25.9275H465.882V68.0715Z" fill="white"/>
<path d="M648.01 58.5345V43.6886H673.59V26.3522H629.535V74.0369H648.454V70.06C648.454 69.9055 648.493 69.7318 648.531 69.5773C648.802 67.8205 650.288 66.4884 652.122 66.4884C654.13 66.4884 655.752 68.1101 655.752 70.1179V95.717C655.752 97.7248 654.13 99.3465 652.122 99.3465C650.115 99.3465 648.589 97.802 648.512 95.8908C648.474 95.7749 648.454 95.6784 648.454 95.5626V81.8557H629.38V97.7248C629.38 105.852 634.516 114.579 650.288 114.579H655.424C669.401 114.579 676.833 106.084 676.833 96.0645V63.6891C676.833 49.1907 654.497 47.1829 647.991 58.4959" fill="white"/>
<path d="M602.584 24.8462H598.048C582.835 24.8462 577.217 33.2827 577.217 42.0667V55.7737H597.237V43.9394C597.237 41.7192 597.912 40.6574 600.036 40.6574C602.044 40.6574 602.97 41.7192 602.97 43.9394V48.6306C602.97 51.7967 601.909 54.0169 597.217 60.6966C594.688 63.8627 591.619 68.0713 588.8 71.9324C576.116 88.3229 575.576 92.5508 575.576 101.566V113.034H624.245V96.2961H595.074C595.074 94.5393 594.669 93.1299 607.218 79.9056C610.828 76.2762 614.033 72.8784 616.832 69.7123C624.979 60.9283 625.519 56.3529 625.519 47.5688V42.9934C625.519 31.2749 617.508 24.8462 602.546 24.8462" fill="white"/>
<path d="M69.5 0C31.1206 0 0 31.1206 0 69.5C0 107.879 31.1206 139 69.5 139C107.879 139 139 107.879 139 69.5C139 31.1206 107.879 0 69.5 0Z" fill="white"/>
<path d="M115.216 80.678H116.992V80.9869H116.277V82.4927H115.93V80.9869H115.216V80.678ZM32.3176 87.6666H28.3213C27.414 87.6666 26.9699 87.1646 26.9699 86.18V84.597C26.9699 84.153 27.0858 83.7862 27.3367 83.4773C27.5684 83.1877 27.8966 83.0332 28.3213 83.0332H31.4681C32.2017 83.0332 32.7037 83.3807 32.9353 84.1143L33.3794 85.6395H36.2559V83.9599C36.2559 82.8402 35.8891 81.9135 35.1362 81.1606C34.364 80.4077 33.4373 80.0409 32.3369 80.0409H27.6842C26.5838 80.0409 25.6378 80.427 24.8463 81.2185C24.0741 81.9907 23.688 82.9174 23.688 84.0178V86.7206C23.688 87.821 24.0741 88.767 24.8463 89.5585C25.6378 90.3307 26.5838 90.7169 27.6842 90.7169H31.6805C32.5685 90.7169 33.0126 91.2381 33.0126 92.242V94.2884C33.0126 94.7324 32.8967 95.0992 32.6458 95.3888C32.3948 95.6977 32.0666 95.8328 31.6805 95.8328H28.4951C27.6842 95.8328 27.2016 95.466 27.0085 94.7517L26.5838 93.0335H23.688V94.9062C23.688 96.0452 24.0548 96.9719 24.8077 97.7055C25.5606 98.4584 26.4873 98.8252 27.607 98.8252H32.3176C33.418 98.8252 34.364 98.4391 35.1362 97.6475C35.9084 96.8753 36.2752 95.9293 36.2752 94.8289V91.6435C36.2752 90.5624 35.8891 89.6164 35.1169 88.8249C34.3447 88.0334 33.3987 87.6473 32.3176 87.6473M51.5073 81.2185C52.2795 81.9907 52.6656 82.9174 52.6656 83.9985V87.9368C52.6656 89.0373 52.2795 89.9832 51.5073 90.7555C50.7158 91.5277 49.7698 91.9331 48.6694 91.9331H43.4955V98.8252H40.1749V80.0602H48.6694C49.7698 80.0602 50.7158 80.4463 51.5073 81.2378M49.3451 84.6356C49.3451 84.1723 49.2099 83.8248 48.959 83.5352C48.708 83.2456 48.3798 83.1105 47.9937 83.1105H43.4762V88.9407H47.9937C48.3798 88.9407 48.708 88.7863 48.959 88.4967C49.2099 88.2071 49.3451 87.8403 49.3451 87.3963V84.6549V84.6356ZM82.3769 91.0837L85.6588 98.8445H82.1259L79.0756 91.4891H75.9288V98.8445H72.6083V80.0795H80.9097C82.0294 80.0795 82.956 80.4656 83.7283 81.2571C84.5005 82.0294 84.9059 82.956 84.9059 84.0371V87.3191C84.9059 88.1685 84.6742 88.9407 84.2109 89.6357C83.7283 90.3114 83.1105 90.7941 82.3769 91.1223M81.5853 84.6742C81.5853 84.2302 81.4695 83.8634 81.2379 83.5738C81.0062 83.2842 80.678 83.1491 80.2919 83.1491H75.9481V88.516H80.2919C80.678 88.516 80.9869 88.3809 81.2379 88.0913C81.4695 87.8017 81.5853 87.4349 81.5853 86.9909V84.6742ZM87.0102 83.1298H91.7787V98.8638H95.0992V83.1298H99.9256V80.0988H87.0102V83.1298ZM110.968 87.7052H106.972C106.084 87.7052 105.64 87.2032 105.64 86.2187V84.6356C105.64 84.1916 105.756 83.8248 106.007 83.5159C106.239 83.2263 106.586 83.0718 106.991 83.0718H110.138C110.872 83.0718 111.374 83.4194 111.605 84.153L112.03 85.6781H114.907V83.9985C114.907 82.8788 114.521 81.9521 113.768 81.1992C112.995 80.4463 112.069 80.0795 110.968 80.0795H106.335C105.235 80.0795 104.269 80.4656 103.516 81.2571C102.744 82.0294 102.339 82.956 102.339 84.0564V86.7592C102.339 87.8596 102.744 88.8056 103.516 89.5971C104.289 90.3693 105.235 90.7555 106.335 90.7555H110.331C111.219 90.7555 111.663 91.2767 111.663 92.2806V94.327C111.663 94.771 111.548 95.1378 111.316 95.4274C111.065 95.7363 110.737 95.8714 110.331 95.8714H107.146C106.354 95.8714 105.852 95.5046 105.659 94.7903L105.235 93.0721H102.339V94.9448C102.339 96.0838 102.725 97.0105 103.459 97.7441C104.231 98.497 105.138 98.8638 106.258 98.8638H110.949C112.069 98.8638 112.995 98.4777 113.787 97.6862C114.559 96.9139 114.945 95.968 114.945 94.8675V91.6821C114.945 90.601 114.559 89.655 113.748 88.8635C112.976 88.072 112.03 87.6859 110.949 87.6859M119.135 80.6973L118.42 81.7977L117.706 80.6973H117.397V82.512H117.706V81.3923C117.706 81.3923 117.667 81.2764 117.667 81.1992C117.706 81.2571 117.745 81.3344 117.783 81.373L118.382 82.2803H118.44L119.019 81.3923C119.019 81.3923 119.077 81.2764 119.096 81.1992C119.096 81.2957 119.096 81.3537 119.096 81.3923V82.512H119.424V80.6973H119.154H119.135ZM67.3765 81.2378C68.168 81.9907 68.5541 82.956 68.5541 84.0371V94.8289C68.5541 95.968 68.168 96.9139 67.3765 97.6862C66.5849 98.4777 65.6776 98.8638 64.5578 98.8638H60.079C58.9592 98.8638 58.0133 98.4777 57.241 97.6862C56.4688 96.9139 56.0634 95.968 56.0634 94.8289V84.0371C56.0634 82.956 56.4688 82.01 57.241 81.2571C58.0133 80.4656 58.9592 80.0795 60.079 80.0795H64.5578C65.6776 80.0795 66.6042 80.4656 67.3765 81.2378ZM65.2528 84.6549C65.2528 84.2109 65.137 83.8441 64.8667 83.5545C64.6158 83.2649 64.3069 83.1298 63.9208 83.1298H60.7353C60.3106 83.1298 60.0017 83.2649 59.7508 83.5545C59.5191 83.8441 59.4033 84.2109 59.4033 84.6549V94.2691C59.4033 94.7131 59.5191 95.0606 59.7508 95.3695C60.0017 95.6784 60.3106 95.8328 60.7353 95.8328H63.9208C64.3069 95.8328 64.6351 95.6784 64.8667 95.3695C65.1177 95.0799 65.2528 94.7131 65.2528 94.2691V84.6549ZM79.2494 32.1824H43.5148L38.0513 40.8699H73.7666L79.2494 32.1824ZM92.7826 58.2256H87.4156L81.9135 66.9324H98.2654L103.748 75.6199H114.173L86.5276 31.8928L64.3262 66.9517H40.0398L45.6191 58.2642H60.716L66.2181 49.5767H32.5685L27.0665 58.2642H35.1362L24.132 75.6392H69.3842L86.5469 48.3605L92.7826 58.2256Z" fill="black"/>
<path d="M565.556 26.3908C562.352 28.6881 556.212 31.8349 548.336 29.8851C534.667 26.5066 530.768 14.7495 530.768 14.7495C530.768 14.7495 526.849 26.5259 513.18 29.8851C505.284 31.8349 499.164 28.6881 495.96 26.3908H493.489V89.8867C493.489 91.4891 493.875 94.6552 496.481 97.8213C499.705 101.721 505.149 104.269 512.698 105.35C518.702 106.219 523.142 108.111 526.27 111.123C528.586 113.343 530.768 117.165 530.768 117.165C530.768 117.165 533.026 113.246 535.247 111.123C538.374 108.092 542.814 106.219 548.818 105.35C556.348 104.269 561.83 101.721 565.035 97.8213C567.641 94.6552 568.047 91.4891 568.047 89.8867V26.3908H565.576H565.556Z" fill="white"/>
<path d="M565.788 28.8618C565.788 28.8618 558.317 34.6728 547.795 32.0472C535.517 28.9777 530.748 19.7882 530.748 19.7882C530.748 19.7882 525.98 28.9777 513.702 32.0472C503.18 34.6728 495.709 28.8618 495.709 28.8618V89.8674C495.709 91.9524 496.578 100.736 513.007 103.111C519.493 104.057 524.339 106.142 527.814 109.482C529.069 110.679 530.015 111.914 530.748 113.034C531.482 111.914 532.409 110.698 533.683 109.482C537.158 106.123 542.003 104.057 548.49 103.111C564.919 100.736 565.788 91.9331 565.788 89.8674V28.8618Z" fill="#013369"/>
<mask id="mask1_13_687" style="mask-type:luminance" maskUnits="userSpaceOnUse" x="499" y="57" width="63" height="50">
<path d="M561.676 57.9166H499.821V106.856H561.676V57.9166Z" fill="white"/>
</mask>
<g mask="url(#mask1_13_687)">
<path d="M530.748 106.856C530.748 106.856 535.498 100.968 547.911 99.0762C562.101 96.8753 561.676 90.2149 561.676 89.8867V57.936H499.821V89.8867C499.821 90.2342 499.415 96.8946 513.586 99.0762C525.98 100.987 530.748 106.856 530.748 106.856Z" fill="white"/>
</g>
<path d="M516.327 81.2764V66.0636L514.397 65.0018V61.0635H523.084V65.0018L521.289 66.0636V97.0683L516.636 95.6783L509.937 75.8708V88.9407L512.061 90.5624V94.5972L502.736 92.2226V88.7863L504.86 87.9561V66.0829L502.678 65.0018V61.0635H509.744L516.327 81.2764Z" fill="#D50A0A"/>
<path d="M532.312 95.1764L534.166 97.3965V101.335L524.938 97.8792V94.5393L526.984 93.7092V66.0636L524.938 65.0404V61.0635H540.98V69.0753H537.448L536.386 65.7933H532.312V75.06H535.362L536.579 73.3032H539.031V81.5467H536.579L535.42 79.8864H532.312V95.1764Z" fill="#D50A0A"/>
<path d="M542.505 96.5664V92.6281L544.783 90.7361V66.0636L542.834 65.0404V61.0635H552.062V65.0404L550.266 66.0636V89.211L554.224 88.1299L554.996 82.0872H558.799V92.2033L542.505 96.5664Z" fill="#D50A0A"/>
<path d="M501.423 51.372L498.624 49.2677H502.041L503.18 46.0437L504.3 49.2677H507.717L504.918 51.372L505.96 54.654L503.18 52.7041L500.4 54.654L501.423 51.372Z" fill="white"/>
<path d="M513.547 51.372L510.767 49.2677H514.184L515.304 46.0437L516.443 49.2677H519.86L517.061 51.372L518.084 54.654L515.304 52.7041L512.524 54.654L513.547 51.372Z" fill="white"/>
<path d="M501.423 40.4259L498.624 38.3216H502.041L503.18 35.0782L504.3 38.3216H507.717L504.918 40.4259L505.96 43.7078L503.18 41.758L500.4 43.7078L501.423 40.4259Z" fill="white"/>
<path d="M513.547 40.4259L510.767 38.3216H514.184L515.304 35.0782L516.443 38.3216H519.86L517.061 40.4259L518.084 43.7078L515.304 41.758L512.524 43.7078L513.547 40.4259Z" fill="white"/>
<path d="M561.097 54.654L558.297 52.7041L555.517 54.654L556.56 51.372L553.76 49.2677H557.178L558.297 46.0437L559.436 49.2677H562.853L560.054 51.372L561.097 54.654Z" fill="white"/>
<path d="M548.954 54.654L546.174 52.7041L543.394 54.654L544.417 51.372L541.617 49.2677H545.035L546.174 46.0437L547.293 49.2677H550.71L547.911 51.372L548.954 54.654Z" fill="white"/>
<path d="M561.097 43.7078L558.297 41.758L555.517 43.7078L556.56 40.4259L553.76 38.3216H557.178L558.297 35.0782L559.436 38.3216H562.853L560.054 40.4259L561.097 43.7078Z" fill="white"/>
<path d="M548.954 43.7078L546.174 41.758L543.394 43.7078L544.417 40.4259L541.617 38.3216H545.035L546.174 35.0782L547.293 38.3216H550.71L547.911 40.4259L548.954 43.7078Z" fill="white"/>
<path d="M538.451 31.6417C538.451 31.6417 537.003 32.3946 534.976 34.3831C535.42 34.6341 535.941 35.0009 536.231 35.2519C535.922 35.5221 535.613 35.8117 535.324 36.082C534.011 35.0009 532.64 34.441 531.578 34.19C531.926 33.9391 532.312 33.6881 532.679 33.4564C533.239 33.6109 533.799 33.8232 533.799 33.8232C536.077 32.0857 538.046 31.3328 538.046 31.3328C538.046 31.3328 537.814 31.217 537.216 31.2363C528.239 31.3521 519.976 38.0512 521.54 49.5187C521.694 50.7349 522.177 52.9551 522.775 53.9203C522.968 52.0091 523.702 47.7812 525.825 43.2637C525.092 42.9934 524.474 42.8969 524.474 42.8969C524.686 42.4335 524.995 41.8544 524.995 41.8544C526.578 42.1439 527.968 42.8196 529.165 43.7656C528.876 44.2289 528.683 44.5378 528.547 44.7695C528.123 44.4413 527.698 44.1517 527.235 43.9007C524.841 48.0707 523.721 52.0284 523.277 54.0941C523.296 54.2292 523.547 54.2871 523.76 54.2678C533.605 52.9937 538.2 47.9742 539.61 42.5301C540.536 38.9585 540.227 35.2326 538.992 32.1823C538.915 31.9699 538.741 31.6224 538.451 31.6417ZM529.995 42.4721C528.721 41.391 527.235 40.7539 525.767 40.4837C525.767 40.4837 526.212 39.75 526.462 39.3639C528.258 39.7114 529.706 40.5609 530.729 41.4103C530.459 41.7771 530.227 42.1439 529.995 42.4721ZM531.617 40.1941C530.42 39.1902 528.991 38.4566 527.351 38.1284C527.601 37.8002 527.891 37.472 528.161 37.1438C529.416 37.3562 531.019 38.0126 532.409 39.1709C532.138 39.4991 531.849 39.8466 531.598 40.1941M533.393 38.0319C532.158 37.0087 530.748 36.333 529.262 36.0241C529.629 35.6766 529.995 35.4063 530.324 35.1167C532.177 35.5607 533.432 36.3909 534.281 37.1052C533.972 37.4141 533.683 37.723 533.393 38.0319Z" fill="white"/>
</g>
</g>
<defs>
<clipPath id="clip0_13_687">
<rect width="676.853" height="139" fill="white"/>
</clipPath>
</defs>
</svg>
